<svg xmlns="http://www.w3.org/2000/svg" viewBox="0 0 200 200"><defs><style>.cls-1{fill:#f8bc5c;}.cls-2{fill:#fff;}</style></defs><g id="Layer_2" data-name="Layer 2"><g id="Layer_2-2" data-name="Layer 2"><circle class="cls-1" cx="100" cy="100" r="100"/><path class="cls-2" d="M78.32,129.51c7.57-11.4,18.17-13,30.79-10.39,15,2.19,23.93,21.55,15.6,34.33C105.1,178.54,71,171.27,57.46,144.5,48,127.51,45,108.41,45.41,89.4c-.32-86.91,127.62-72.26,107,15-3.74,9.86-7.36,35-21.74,31.6-2.89-.87-4.36-3.2-3.13-6.85,4.22-19.29,13.93-40.09,6-59.57C122.58,42.47,81.05,41.82,66.77,66c-3.69,8.49-4.23,18.17-4.51,27.42-1.44,24.15,13.58,75.85,45.61,54.23,7.18-4.83,1.64-13.85-6.1-11.22C95.1,139.47,78.6,139.88,78.32,129.51Z"/></g></g></svg>